<svg id="visual" viewBox="0 0 1366 768" width="1366" height="768" xmlns="http://www.w3.org/2000/svg" xmlns:xlink="http://www.w3.org/1999/xlink" version="1.1"><path d="M0 32L113.8 43.5C227.7 55 455.3 78 683 97.2C910.7 116.3 1138.3 131.7 1252.2 139.3L1366 147L1366 0L1252.2 0C1138.3 0 910.7 0 683 0C455.3 0 227.7 0 113.8 0L0 0Z" fill="#ff6f77"></path><path d="M0 354L113.8 387.3C227.7 420.7 455.3 487.3 683 486.2C910.7 485 1138.3 416 1252.2 381.5L1366 347L1366 145L1252.2 137.3C1138.3 129.7 910.7 114.3 683 95.2C455.3 76 227.7 53 113.8 41.5L0 30Z" fill="#ff3b49"></path><path d="M0 546L113.8 555C227.7 564 455.3 582 683 585.8C910.7 589.7 1138.3 579.3 1252.2 574.2L1366 569L1366 345L1252.2 379.5C1138.3 414 910.7 483 683 484.2C455.3 485.3 227.7 418.7 113.8 385.3L0 352Z" fill="#e8002e"></path><path d="M0 769L113.8 769C227.7 769 455.3 769 683 769C910.7 769 1138.3 769 1252.2 769L1366 769L1366 567L1252.2 572.2C1138.3 577.3 910.7 587.7 683 583.8C455.3 580 227.7 562 113.8 553L0 544Z" fill="#bc0029"></path></svg>