<svg id="visual" viewBox="0 0 960 540" width="960" height="540" xmlns="http://www.w3.org/2000/svg" xmlns:xlink="http://www.w3.org/1999/xlink" version="1.1"><path d="M0 33L192 33L384 33L576 39L768 44L960 39L960 0L768 0L576 0L384 0L192 0L0 0Z" fill="#f45b67"></path><path d="M0 87L192 77L384 66L576 77L768 82L960 82L960 37L768 42L576 37L384 31L192 31L0 31Z" fill="#f04c58"></path><path d="M0 158L192 136L384 158L576 141L768 152L960 147L960 80L768 80L576 75L384 64L192 75L0 85Z" fill="#eb3b49"></path><path d="M0 255L192 244L384 244L576 282L768 276L960 255L960 145L768 150L576 139L384 156L192 134L0 156Z" fill="#e62639"></path><path d="M0 282L192 271L384 282L576 309L768 314L960 276L960 253L768 274L576 280L384 242L192 242L0 253Z" fill="#e00029"></path><path d="M0 330L192 303L384 325L576 352L768 352L960 309L960 274L768 312L576 307L384 280L192 269L0 280Z" fill="#d10029"></path><path d="M0 449L192 465L384 455L576 444L768 444L960 444L960 307L768 350L576 350L384 323L192 301L0 328Z" fill="#c20028"></path><path d="M0 514L192 519L384 503L576 503L768 503L960 514L960 442L768 442L576 442L384 453L192 463L0 447Z" fill="#b40027"></path><path d="M0 541L192 541L384 541L576 541L768 541L960 541L960 512L768 501L576 501L384 501L192 517L0 512Z" fill="#a50025"></path></svg>